<svg width="128" height="40" viewBox="0 0 128 40" fill="none" xmlns="http://www.w3.org/2000/svg">
<rect x="0.75" y="0.75" width="126.5" height="38.5" rx="4.25" fill="white" stroke="#333333" stroke-width="1.5"/>
<path d="M49.135 23.02V27.175H46.885V25H39.475V27.175H37.225L37.24 23.02H37.66C38.29 23 38.735 22.54 38.995 21.64C39.255 20.74 39.415 19.455 39.475 17.785L39.595 14.5H47.665V23.02H49.135ZM41.62 18.01C41.57 19.26 41.465 20.31 41.305 21.16C41.145 22 40.9 22.62 40.57 23.02H45.265V16.48H41.665L41.62 18.01ZM54.2683 25.12C53.4183 25.12 52.6533 24.945 51.9733 24.595C51.3033 24.235 50.7783 23.74 50.3983 23.11C50.0183 22.48 49.8283 21.765 49.8283 20.965C49.8283 20.165 50.0183 19.45 50.3983 18.82C50.7783 18.19 51.3033 17.7 51.9733 17.35C52.6533 16.99 53.4183 16.81 54.2683 16.81C55.1183 16.81 55.8783 16.99 56.5483 17.35C57.2183 17.7 57.7433 18.19 58.1233 18.82C58.5033 19.45 58.6933 20.165 58.6933 20.965C58.6933 21.765 58.5033 22.48 58.1233 23.11C57.7433 23.74 57.2183 24.235 56.5483 24.595C55.8783 24.945 55.1183 25.12 54.2683 25.12ZM54.2683 23.2C54.8683 23.2 55.3583 23 55.7383 22.6C56.1283 22.19 56.3233 21.645 56.3233 20.965C56.3233 20.285 56.1283 19.745 55.7383 19.345C55.3583 18.935 54.8683 18.73 54.2683 18.73C53.6683 18.73 53.1733 18.935 52.7833 19.345C52.3933 19.745 52.1983 20.285 52.1983 20.965C52.1983 21.645 52.3933 22.19 52.7833 22.6C53.1733 23 53.6683 23.2 54.2683 23.2ZM64.9677 17.485C65.7377 17.485 66.4127 17.645 66.9927 17.965C67.5727 18.275 68.0177 18.715 68.3277 19.285C68.6477 19.855 68.8077 20.515 68.8077 21.265C68.8077 22.035 68.6177 22.72 68.2377 23.32C67.8677 23.91 67.3477 24.37 66.6777 24.7C66.0077 25.02 65.2477 25.18 64.3977 25.18C62.9877 25.18 61.8777 24.73 61.0677 23.83C60.2677 22.92 59.8677 21.59 59.8677 19.84C59.8677 18.22 60.2177 16.93 60.9177 15.97C61.6277 15 62.7127 14.365 64.1727 14.065L68.0127 13.3L68.3277 15.31L64.9377 15.985C64.0177 16.165 63.3327 16.465 62.8827 16.885C62.4427 17.305 62.1827 17.9 62.1027 18.67C62.4527 18.29 62.8727 18 63.3627 17.8C63.8527 17.59 64.3877 17.485 64.9677 17.485ZM64.4127 23.365C65.0127 23.365 65.4927 23.17 65.8527 22.78C66.2227 22.39 66.4077 21.895 66.4077 21.295C66.4077 20.685 66.2227 20.2 65.8527 19.84C65.4927 19.48 65.0127 19.3 64.4127 19.3C63.8027 19.3 63.3127 19.48 62.9427 19.84C62.5727 20.2 62.3877 20.685 62.3877 21.295C62.3877 21.905 62.5777 22.405 62.9577 22.795C63.3377 23.175 63.8227 23.365 64.4127 23.365ZM73.3987 16.81C74.6487 16.81 75.6087 17.11 76.2787 17.71C76.9487 18.3 77.2837 19.195 77.2837 20.395V25H75.0937V23.995C74.6537 24.745 73.8337 25.12 72.6337 25.12C72.0137 25.12 71.4737 25.015 71.0137 24.805C70.5637 24.595 70.2187 24.305 69.9787 23.935C69.7387 23.565 69.6187 23.145 69.6187 22.675C69.6187 21.925 69.8987 21.335 70.4587 20.905C71.0287 20.475 71.9037 20.26 73.0837 20.26H74.9437C74.9437 19.75 74.7887 19.36 74.4787 19.09C74.1687 18.81 73.7037 18.67 73.0837 18.67C72.6537 18.67 72.2287 18.74 71.8087 18.88C71.3987 19.01 71.0487 19.19 70.7587 19.42L69.9187 17.785C70.3587 17.475 70.8837 17.235 71.4937 17.065C72.1137 16.895 72.7487 16.81 73.3987 16.81ZM73.2187 23.545C73.6187 23.545 73.9737 23.455 74.2837 23.275C74.5937 23.085 74.8137 22.81 74.9437 22.45V21.625H73.3387C72.3787 21.625 71.8987 21.94 71.8987 22.57C71.8987 22.87 72.0137 23.11 72.2437 23.29C72.4837 23.46 72.8087 23.545 73.2187 23.545ZM85.4814 20.785C86.4314 21.105 86.9064 21.745 86.9064 22.705C86.9064 23.435 86.6314 24 86.0814 24.4C85.5314 24.8 84.7114 25 83.6214 25H79.3164V16.93H83.4414C84.4514 16.93 85.2414 17.115 85.8114 17.485C86.3814 17.845 86.6664 18.355 86.6664 19.015C86.6664 19.415 86.5614 19.77 86.3514 20.08C86.1514 20.38 85.8614 20.615 85.4814 20.785ZM81.4614 20.245H83.2314C84.0514 20.245 84.4614 19.955 84.4614 19.375C84.4614 18.805 84.0514 18.52 83.2314 18.52H81.4614V20.245ZM83.4264 23.41C84.2864 23.41 84.7164 23.115 84.7164 22.525C84.7164 22.215 84.6164 21.99 84.4164 21.85C84.2164 21.7 83.9014 21.625 83.4714 21.625H81.4614V23.41H83.4264ZM88.6475 16.93H90.9725V21.73L94.9025 16.93H97.0475V25H94.7225V20.2L90.8075 25H88.6475V16.93ZM106.077 18.85H103.347V25H101.022V18.85H98.2919V16.93H106.077V18.85ZM111.689 19.51C112.739 19.52 113.544 19.76 114.104 20.23C114.664 20.69 114.944 21.345 114.944 22.195C114.944 23.085 114.629 23.78 113.999 24.28C113.379 24.77 112.504 25.015 111.374 25.015L107.324 25V16.93H109.649V19.51H111.689ZM111.164 23.35C111.614 23.36 111.959 23.265 112.199 23.065C112.439 22.865 112.559 22.565 112.559 22.165C112.559 21.775 112.439 21.49 112.199 21.31C111.969 21.13 111.624 21.035 111.164 21.025L109.649 21.01V23.35H111.164Z" fill="#333333"/>
<path d="M24.8 18.8H21.2V15.2C21.2 14.5373 20.6627 14 20 14C19.3373 14 18.8 14.5373 18.8 15.2V18.8H15.2C14.5373 18.8 14 19.3373 14 20C14 20.6627 14.5373 21.2 15.2 21.2H18.8V24.8C18.8 25.4627 19.3373 26 20 26C20.6627 26 21.2 25.4627 21.2 24.8V21.2H24.8C25.4627 21.2 26 20.6627 26 20C26 19.3373 25.4627 18.8 24.8 18.8Z" fill="#333333"/>
</svg>
