<svg width="19" height="24" viewBox="0 0 19 24" fill="none" xmlns="http://www.w3.org/2000/svg">
<path d="M0 19.2C0 21.8526 2.125 24 4.75 24H14.25C16.875 24 19 21.8526 19 19.2V9.6C19 6.94737 16.875 4.8 14.25 4.8H4.75C2.125 4.8 0 6.94737 0 9.6V19.2ZM2.375 19.2V9.6C2.375 8.12632 3.29167 7.2 4.75 7.2H14.25C15.7083 7.2 16.625 8.12632 16.625 9.6V19.2C16.625 20.6737 15.7083 21.6 14.25 21.6H4.75C3.29167 21.6 2.375 20.6737 2.375 19.2ZM7.125 8.4V4.8C7.125 3.32632 8.04167 2.4 9.5 2.4C10.9583 2.4 11.875 3.32632 11.875 4.8V8.4C11.875 9.05263 12.4167 9.6 13.0625 9.6C13.7083 9.6 14.25 9.05263 14.25 8.4V4.8C14.25 2.14737 12.125 0 9.5 0C6.875 0 4.75 2.14737 4.75 4.8V8.4C4.75 9.05263 5.29167 9.6 5.9375 9.6C6.58333 9.6 7.125 9.05263 7.125 8.4Z" fill="white"/>
</svg>
