<svg width="24" height="23" viewBox="0 0 24 23" fill="none" xmlns="http://www.w3.org/2000/svg">
<path d="M12.9684 2.88421C11.6632 1.13684 9.55789 0 7.2 0C3.22105 0 0 3.22105 0 7.2C0 14.4842 5.66316 19.1789 8.94737 21.2632C10.9684 22.5684 13.0316 22.5684 15.0526 21.2632C18.3368 19.1789 24 14.4842 24 7.2C24 3.22105 20.7789 0 16.8 0C14.4421 0 12.3368 1.13684 11.0316 2.88421C10.8842 3.07368 10.8 3.32632 10.8 3.6C10.8 4.25263 11.3474 4.8 12 4.8C12.4 4.8 12.7368 4.61053 12.9684 4.31579C13.8947 3.07368 15.1368 2.4 16.8 2.4C19.6 2.4 21.6 4.4 21.6 7.2C21.6 13.3053 16.8632 17.2632 13.7474 19.2421C12.4211 20.1053 11.5789 20.1053 10.2526 19.2421C7.13684 17.2632 2.4 13.3053 2.4 7.2C2.4 4.4 4.4 2.4 7.2 2.4C8.86316 2.4 10.1053 3.07368 11.0316 4.31579C11.2632 4.61053 11.6 4.8 12 4.8C12.6526 4.8 13.2 4.25263 13.2 3.6C13.2 3.32632 13.1158 3.07368 12.9684 2.88421Z" fill="#333333"/>
</svg>
