<svg width="24" height="24" viewBox="0 0 24 24" fill="none" xmlns="http://www.w3.org/2000/svg">
<path d="M10.6667 18.6667C6.05848 18.6667 2.66667 15.2749 2.66667 10.6667C2.66667 6.05848 6.05848 2.66667 10.6667 2.66667C15.2749 2.66667 18.6667 6.05848 18.6667 10.6667C18.6667 15.2749 15.2749 18.6667 10.6667 18.6667ZM10.6667 21.3333C16.5848 21.3333 21.3333 16.5848 21.3333 10.6667C21.3333 4.74854 16.5848 0 10.6667 0C4.74854 0 0 4.74854 0 10.6667C0 16.5848 4.74854 21.3333 10.6667 21.3333ZM23.6023 21.731L18.269 16.3977C18.0351 16.1404 17.7076 16 17.3333 16C16.6082 16 16 16.6082 16 17.3333C16 17.7076 16.1404 18.0351 16.3977 18.269L21.731 23.6023C21.9649 23.8596 22.2924 24 22.6667 24C23.3918 24 24 23.3918 24 22.6667C24 22.2924 23.8596 21.9649 23.6023 21.731Z" fill="#333333"/>
</svg>
